<?xml version="1.0" encoding="UTF-8"?>
<svg id="Layer_1" data-name="Layer 1" xmlns="http://www.w3.org/2000/svg" viewBox="0 0 141.57 61.13">
  <defs>
    <style>
      .cls-1 {
        fill: #fff;
      }
    </style>
  </defs>
  <path class="cls-1" d="M62.73,0s-.06,1.31-4.28,3.59c-4.22,2.29-11.08,3.38-12.09,9.73-.66,4.14.88,7.36,2.03,9.1.98-3.04,2.97-7.48,6.77-10.47,3.52-2.77,6.12-5.08,7.46-8.55.25-.65-.41,3.39-6.2,8.28-3.73,3.16-5.9,6.87-6.68,10.28-.16.69-.25,1.29-.3,1.82.06.06.09.09.09.09,0,0,11.33-2.83,14.17-14.2,2.25-9.03-.96-9.68-.96-9.68Z"/>
  <path class="cls-1" d="M14.9,29.62l5.31-9.43c1.13-1.62,2.84-3.92,5.02-3.94,6.07-.08,3,9.1,2.43,12.56-.04.25-.24.82.15.8.03-.35.16-.66.34-.96,1.73-2.98,5.52-10.63,8.84-11.56,2.86-.81,4.82,1.14,4.91,3.92.23,7.31-7.15,21.93.81,26.64,6.52,3.86,21.25.26,28.93.5,4.37.14,2.57,2.39-.51,3.11-6.72,1.58-22.2,3.02-28.5.84-13.29-4.61-6.2-19.28-5.21-28.55.03-.32.03-1.94-.56-1.52-4.42,5.58-6.68,12.41-9.84,18.69-1.02,2.02-2.08,4.45-4.85,3.55-2.48-.8-1.18-5.92-.82-7.81.75-3.92,2.29-8.13,2.82-12.02.1-.72.36-1.82-.13-2.38-1.11-.09-6.74,11.47-7.53,13.11-1.19,2.45-3.69,9.69-5.99,10.74-2.54,1.15-3.55-1.26-3.32-3.44.7-6.72,4.59-14.92,4.61-21.58.01-3.85-2.71-1.9-4.51-.39-1.18.99-4.21,4.72-5.4,4.99-1.87.43-2.16-1.63-1.73-3.06.82-2.75,7.17-7.61,10.08-7.85,8.71-.7,5.38,9.97,4.65,15.07Z"/>
  <path class="cls-1" d="M119.44,17.42c5.51-.65.17,7.5-1.53,7.03-1.34-.37-1.93-6.62,1.53-7.03Z"/>
  <path class="cls-1" d="M141.39,23.89c-1.06-1.74-9.8-.58-10.13-.97.37-1.93,3.46-8.29-.76-7.72-2.07.28-3.38,6.31-4.36,7.97-1.5.44-5.94.25-6.22,2.28-.1.71.48,1.41,1.12,1.58,1.05.28,2.59.09,3.71.32-.54,2.29-1.29,4.52-1.91,6.78-.81,2.95-.84,4.63-3.45,6.81-3.1,2.58-3.48-.15-3.04-2.87.33-2.04,3.06-8.09,2.73-9.38-.3-1.17-1.59-1.54-2.66-1.2-1.11.34-1.67,2.03-2,2.14l-8.98,1.04c-.33-.42,2.78-8.96,3.26-10.14.55-1.37,2.14-5.29,3.13-6.13,1.49-1.27,1.57,1.05,1.41,2.1-.46,3.16-2.76,4.82-3.45,7.06-.82,2.63,1.57,3.09,3.18,1.31,2.76-3.03,6.02-13.04.57-14.86-4.82-1.61-7.98,6.7-9.33,10.14-1.46,3.71-2.43,7.6-3.8,11.35l-3.75,1.36c-.14-.22,1.44-4.23,1.55-5,.28-2.07-2.12-2.58-3.53-1.52-1.03.77-3.19,6.56-4.17,8.26-.51.88-3.31,5.56-4.49,3.55-1.01-1.72,2.07-8.49,2.41-10.62.03-1.65-2.12-2.13-3.33-1.34-1.1.72-2.41,4.49-2.81,5.84-.34,1.15-.72,4.04-1.05,4.7-.19.38-2.03,2.05-2.45,2.29-4.28,2.48-2.98-3.8-2.51-5.96.65-3.02,1.8-6.11,2.77-9.05.44-.52,9.35-.25,11.36-1.43.76-.45,1.66-1.38.88-2.2-1.3-1.39-8.63-.53-10.71-.69.55-1.69,2.75-6.66.25-7.41-2.93-.88-4.3,6.04-5.32,7.84-1.51.12-6.53.47-7.12,2.08-.9,2.45,4.36,2.23,5.69,1.92-.58,3.05-1.67,5.97-2.33,9-.54,2.47-.35,3.19-2.3,5.2-.73.76-2.08,1.88-3.12,1.23-1.67-1.31,3.46-9.62.87-13.09-2.56-3.43-7.79,1.86-9.21,4.2-.2-1.1,1.34-4.62-.05-5.17-3.06-1.22-3.73,2.42-4.27,4.49-.83,3.16-.68,5.27-2.9,7.96-2,2.43-4.79,3.74-4.09-.9.41-2.71,3.39-8.09,2.45-10.41-.75-1.85-2.86-.93-3.76.43-1.27,1.92-2.96,7.7-3.24,10.03-.84,6.87,3.7,9.37,8.77,4.74.49.62.47,1.48,1.3,1.82,3.47,1.44,4.46-3.64,5.56-5.82.63-1.24,3.9-7.53,5.23-7.43.49.05.54.43.5.83-.14,1.66-1.53,4.12-1.86,6-1.44,8.18,5.46,8.07,9.55,3.18l1.66,2.14c3.03,2.11,6.58.29,8.99-1.89,1.72,1.73,2.77,2.57,5.35,1.91,1.05-.27,1.65-.93,2.6-1.24l-1.57,5.19c-3.76.29-8.98.42-11.73,3.42-5.39,5.89,1.57,14.53,8.53,9.9,3.32-2.21,4.84-6.05,6.42-9.54l4.37.26c.2,2.14-.21,5.07,1.83,6.59,3.81,2.85,7.87-1.42,8.67-5.1.16-.12,2.95.99,3.41,1.2,1.47.67,5.69,4.15,4.77-.05-.44-2.01-5.31-4.12-7.23-4.24,1.05-4.92,1.23-9.98-1.47-14.4l7.37-1.4c-.97,3.16-3.22,9.37-.1,11.87,2.52,2.02,7.19.19,8.59-2.52.42-.24,1.09,1.37,1.39,1.7,2.14,2.39,5.89,1.94,8.38.37,1.51-.95,4.85-4.09,4.22-6.01-.84-2.55-3.23,1.07-4.05,1.75-1.42,1.18-4.65,2.62-5.1-.1-.58-3.44,2.17-9.65,3.28-12.97,2.05-.68,10.51.09,11.59-1.83.25-.43.31-1.05.04-1.49ZM80.01,56.52c-1.45-.91-1.37-2.9-.42-4.16,1.53-2.04,4.91-1.96,7.18-2.25-.44,2.42-3.68,8.34-6.75,6.41ZM96.29,47.31l-3.6-.31,3.12-11.06c1,.5,2.15.36,3.23.51l-2.75,10.86ZM103.45,50.24c-.27.77-2.08,5.32-3.15,3.4-1.08-1.93,2.37-12.8,2.91-15.47,2.5,3.21,1.5,8.48.25,12.08Z"/>
</svg>